# xmcd CD database file
#
# Track frame offsets:
#	150
#	16942
#	35388
#	48145
#	62266
#	77918
#	91017
#	103820
#	116937
#	132316
#	145339
#	159593
#	178486
#	189559
#
# Disc length: 2727 seconds
#
# Revision: 0
# Processed by: cddbd v1.5.2PL0 Copyright (c) Steve Scherf et al.
# Submitted via: CDex 1.40Beta9
#
DISCID=bb0aa50e
DTITLE=Mattão e Monteiro - Amor pra todo dia
DYEAR=2006
DGENRE=Country
TTITLE0=01-Não Quero Mas Eu Te Amo
TTITLE1=02-Casa Solidão
TTITLE2=03-É no Bailão
TTITLE3=04-Contradições
TTITLE4=05-Amor Pra Todo Dia
TTITLE5=06-Mulher Fatal
TTITLE6=07-Eu Disse Não
TTITLE7=08-Não Consigo Esquecer
TTITLE8=09-Por Deus e Por Favor
TTITLE9=10-Não Adianta Fingir
TTITLE10=11-Escute Minha Canção
TTITLE11=12-Uma Noite com Você
TTITLE12=13-Fofinha
TTITLE13=14-Parece Cigana
EXTD=YEAR: 2006 ID3G: 2
EXTT0=
EXTT1=
EXTT2=
EXTT3=
EXTT4=
EXTT5=
EXTT6=
EXTT7=
EXTT8=
EXTT9=
EXTT10=
EXTT11=
EXTT12=
EXTT13=
PLAYORDER=
